<mxfile host="app.diagrams.net" agent="Mozilla/5.0 (Windows NT 10.0; Win64; x64) AppleWebKit/537.36 (KHTML, like Gecko) Chrome/135.0.0.0 Safari/537.36 Edg/135.0.0.0" version="26.0.11">
  <diagram name="第 1 页" id="n0biVYKWGW8W1ETynUEj">
    <mxGraphModel dx="1631" dy="879" grid="0" gridSize="10" guides="1" tooltips="1" connect="1" arrows="1" fold="1" page="1" pageScale="1" pageWidth="827" pageHeight="1169" math="0" shadow="0">
      <root>
        <mxCell id="0" />
        <mxCell id="1" parent="0" />
        <mxCell id="rGQe2OTgoNgVS8Tw92WL-5" value="" style="endArrow=classic;html=1;rounded=0;exitX=0.5;exitY=1;exitDx=0;exitDy=0;entryX=0.5;entryY=0;entryDx=0;entryDy=0;" edge="1" parent="1" source="rGQe2OTgoNgVS8Tw92WL-11" target="rGQe2OTgoNgVS8Tw92WL-12">
          <mxGeometry width="50" height="50" relative="1" as="geometry">
            <mxPoint x="145" y="138" as="sourcePoint" />
            <mxPoint x="195" y="88" as="targetPoint" />
          </mxGeometry>
        </mxCell>
        <mxCell id="rGQe2OTgoNgVS8Tw92WL-9" value="" style="endArrow=classic;html=1;rounded=0;exitX=0.5;exitY=1;exitDx=0;exitDy=0;entryX=0.5;entryY=0;entryDx=0;entryDy=0;" edge="1" parent="1" source="rGQe2OTgoNgVS8Tw92WL-12" target="rGQe2OTgoNgVS8Tw92WL-15">
          <mxGeometry width="50" height="50" relative="1" as="geometry">
            <mxPoint x="185" y="178" as="sourcePoint" />
            <mxPoint x="235" y="128" as="targetPoint" />
          </mxGeometry>
        </mxCell>
        <mxCell id="rGQe2OTgoNgVS8Tw92WL-10" value="" style="endArrow=classic;html=1;rounded=0;exitX=0.5;exitY=1;exitDx=0;exitDy=0;entryX=0.5;entryY=0;entryDx=0;entryDy=0;" edge="1" parent="1" source="rGQe2OTgoNgVS8Tw92WL-12" target="rGQe2OTgoNgVS8Tw92WL-16">
          <mxGeometry width="50" height="50" relative="1" as="geometry">
            <mxPoint x="195" y="188" as="sourcePoint" />
            <mxPoint x="245" y="138" as="targetPoint" />
          </mxGeometry>
        </mxCell>
        <mxCell id="rGQe2OTgoNgVS8Tw92WL-11" value="asset_check_log" style="rounded=0;whiteSpace=wrap;html=1;fillColor=#f8cecc;strokeColor=#b85450;" vertex="1" parent="1">
          <mxGeometry x="423" y="17" width="120" height="60" as="geometry" />
        </mxCell>
        <mxCell id="rGQe2OTgoNgVS8Tw92WL-12" value="&lt;span style=&quot;text-wrap-mode: nowrap;&quot;&gt;worklogAnalysis_all&lt;/span&gt;" style="rounded=0;whiteSpace=wrap;html=1;" vertex="1" parent="1">
          <mxGeometry x="423" y="118" width="120" height="60" as="geometry" />
        </mxCell>
        <mxCell id="rGQe2OTgoNgVS8Tw92WL-14" value="member_role" style="rounded=0;whiteSpace=wrap;html=1;fillColor=#f8cecc;strokeColor=#b85450;" vertex="1" parent="1">
          <mxGeometry x="873" y="534" width="120" height="60" as="geometry" />
        </mxCell>
        <mxCell id="rGQe2OTgoNgVS8Tw92WL-15" value="&lt;span style=&quot;text-align: left;&quot;&gt;inventory_lastest&lt;/span&gt;" style="rounded=0;whiteSpace=wrap;html=1;" vertex="1" parent="1">
          <mxGeometry x="533" y="264" width="120" height="60" as="geometry" />
        </mxCell>
        <mxCell id="rGQe2OTgoNgVS8Tw92WL-16" value="&lt;span style=&quot;text-align: left;&quot;&gt;account_lastest&lt;/span&gt;" style="rounded=0;whiteSpace=wrap;html=1;" vertex="1" parent="1">
          <mxGeometry x="329" y="266" width="120" height="60" as="geometry" />
        </mxCell>
        <mxCell id="rGQe2OTgoNgVS8Tw92WL-18" value="结果" style="rounded=0;whiteSpace=wrap;html=1;" vertex="1" parent="1">
          <mxGeometry x="661" y="738" width="120" height="60" as="geometry" />
        </mxCell>
        <mxCell id="rGQe2OTgoNgVS8Tw92WL-19" value="&lt;div style=&quot;font-size: medium; text-align: start;&quot; data-hash=&quot;aa08769cdcb26674c6706093503ff0a3&quot; data-version=&quot;3.0.0&quot;&gt;&lt;/div&gt;&lt;div style=&quot;font-size: medium; text-align: start;&quot; class=&quot;section&quot;&gt;&lt;p style=&quot;margin: 0pt; font-family: 等线; font-size: 12pt; line-height: 1.5;&quot; class=&quot;paragraph text-align-type-left&quot;&gt;&lt;span style=&quot;font-size: 10.5pt; font-family: Monaco; letter-spacing: 0pt; vertical-align: baseline;&quot; data-font-family=&quot;Monaco&quot;&gt;member&lt;/span&gt;&lt;/p&gt;&lt;/div&gt;" style="rounded=0;whiteSpace=wrap;html=1;" vertex="1" parent="1">
          <mxGeometry x="733" y="534" width="120" height="60" as="geometry" />
        </mxCell>
        <mxCell id="rGQe2OTgoNgVS8Tw92WL-20" value="&lt;div style=&quot;font-size: medium; text-align: start;&quot; data-hash=&quot;ba39f45a2d98c86d7461d8bb6af47e57&quot; data-version=&quot;3.0.0&quot;&gt;&lt;/div&gt;&lt;div style=&quot;font-size: medium; text-align: start;&quot; class=&quot;section&quot;&gt;&lt;p style=&quot;margin: 0pt; font-family: 等线; font-size: 12pt; line-height: 1.5;&quot; class=&quot;paragraph text-align-type-left&quot;&gt;&lt;span style=&quot;font-size: 10.5pt; font-family: Monaco; letter-spacing: 0pt; vertical-align: baseline;&quot; data-font-family=&quot;Monaco&quot;&gt;member_deleted&lt;/span&gt;&lt;/p&gt;&lt;/div&gt;" style="rounded=0;whiteSpace=wrap;html=1;" vertex="1" parent="1">
          <mxGeometry x="807" y="326" width="120" height="60" as="geometry" />
        </mxCell>
        <mxCell id="rGQe2OTgoNgVS8Tw92WL-21" value="&lt;div style=&quot;font-size: medium; text-align: start;&quot; data-hash=&quot;53404c673723f51e42b8791a034e5361&quot; data-version=&quot;3.0.0&quot;&gt;&lt;/div&gt;&lt;div style=&quot;font-size: medium; text-align: start;&quot; class=&quot;section&quot;&gt;&lt;div data-hash=&quot;1b11a82ec94f151f61a0600bc1d3dcc2&quot; data-version=&quot;3.0.0&quot;&gt;&lt;/div&gt;&lt;div class=&quot;section&quot;&gt;&lt;p style=&quot;margin: 0pt; font-family: 等线; font-size: 12pt; line-height: 1.5;&quot; class=&quot;paragraph text-align-type-left&quot;&gt;&lt;span style=&quot;font-size: 10.5pt; font-family: Monaco; letter-spacing: 0pt; vertical-align: baseline;&quot; data-font-family=&quot;Monaco&quot;&gt;acm1_deleted&lt;/span&gt;&lt;/p&gt;&lt;/div&gt;&lt;/div&gt;" style="rounded=0;whiteSpace=wrap;html=1;" vertex="1" parent="1">
          <mxGeometry x="807" y="174" width="120" height="60" as="geometry" />
        </mxCell>
        <mxCell id="rGQe2OTgoNgVS8Tw92WL-22" value="&lt;div style=&quot;font-size: medium; text-align: start;&quot; data-hash=&quot;98c90122cd94f634e9e6a1236d73d949&quot; data-version=&quot;3.0.0&quot;&gt;&lt;/div&gt;&lt;div style=&quot;font-size: medium; text-align: start;&quot; class=&quot;section&quot;&gt;&lt;p style=&quot;margin: 0pt; font-family: 等线; font-size: 12pt; line-height: 1.5;&quot; class=&quot;paragraph text-align-type-left&quot;&gt;&lt;span style=&quot;font-size: 10.5pt; font-family: Monaco; letter-spacing: 0pt; vertical-align: baseline;&quot; data-font-family=&quot;Monaco&quot;&gt;member_live&lt;/span&gt;&lt;/p&gt;&lt;/div&gt;" style="rounded=0;whiteSpace=wrap;html=1;" vertex="1" parent="1">
          <mxGeometry x="649" y="324" width="120" height="60" as="geometry" />
        </mxCell>
        <mxCell id="rGQe2OTgoNgVS8Tw92WL-23" value="&lt;div style=&quot;font-size: medium; text-align: start;&quot; data-hash=&quot;a1ba4ce7cbc2bcee82ab7b186a47d0d5&quot; data-version=&quot;3.0.0&quot;&gt;&lt;/div&gt;&lt;div style=&quot;font-size: medium; text-align: start;&quot; class=&quot;section&quot;&gt;&lt;p style=&quot;margin: 0pt; font-family: 等线; font-size: 12pt; line-height: 1.5;&quot; class=&quot;paragraph text-align-type-left&quot;&gt;&lt;span style=&quot;font-size: 10.5pt; font-family: Monaco; letter-spacing: 0pt; vertical-align: baseline;&quot; data-font-family=&quot;Monaco&quot;&gt;acm1&lt;/span&gt;&lt;/p&gt;&lt;/div&gt;" style="rounded=0;whiteSpace=wrap;html=1;" vertex="1" parent="1">
          <mxGeometry x="649" y="174" width="120" height="60" as="geometry" />
        </mxCell>
        <mxCell id="rGQe2OTgoNgVS8Tw92WL-24" value="&lt;div style=&quot;font-size: medium; text-align: start;&quot; data-hash=&quot;53404c673723f51e42b8791a034e5361&quot; data-version=&quot;3.0.0&quot;&gt;&lt;/div&gt;&lt;div style=&quot;font-size: medium; text-align: start;&quot; class=&quot;section&quot;&gt;&lt;p style=&quot;margin: 0pt; font-family: 等线; font-size: 12pt; line-height: 1.5;&quot; class=&quot;paragraph text-align-type-left&quot;&gt;&lt;span style=&quot;font-size: 10.5pt; font-family: Monaco; letter-spacing: 0pt; vertical-align: baseline;&quot; data-font-family=&quot;Monaco&quot;&gt;asset_check_member&lt;/span&gt;&lt;/p&gt;&lt;/div&gt;" style="rounded=0;whiteSpace=wrap;html=1;fillColor=#f8cecc;strokeColor=#b85450;" vertex="1" parent="1">
          <mxGeometry x="699" y="17" width="174" height="60" as="geometry" />
        </mxCell>
        <mxCell id="rGQe2OTgoNgVS8Tw92WL-25" value="&lt;div style=&quot;font-size: medium; text-align: start;&quot; data-hash=&quot;175c575bc99d5eb0a4d3e99d1d8c328c&quot; data-version=&quot;3.0.0&quot;&gt;&lt;/div&gt;&lt;div style=&quot;font-size: medium; text-align: start;&quot; class=&quot;section&quot;&gt;&lt;p style=&quot;margin: 0pt; font-family: 等线; font-size: 12pt; line-height: 1.5;&quot; class=&quot;paragraph text-align-type-left&quot;&gt;&lt;span style=&quot;font-size: 10.5pt; font-family: Monaco; letter-spacing: 0pt; vertical-align: baseline;&quot; data-font-family=&quot;Monaco&quot;&gt;workRecord&lt;/span&gt;&lt;/p&gt;&lt;/div&gt;" style="rounded=0;whiteSpace=wrap;html=1;" vertex="1" parent="1">
          <mxGeometry x="430" y="534" width="120" height="60" as="geometry" />
        </mxCell>
        <mxCell id="rGQe2OTgoNgVS8Tw92WL-26" value="&lt;span style=&quot;text-align: left;&quot;&gt;worklogAnalysis&lt;/span&gt;" style="rounded=0;whiteSpace=wrap;html=1;" vertex="1" parent="1">
          <mxGeometry x="430" y="417" width="120" height="60" as="geometry" />
        </mxCell>
        <mxCell id="rGQe2OTgoNgVS8Tw92WL-27" value="" style="endArrow=classic;html=1;rounded=0;exitX=0.5;exitY=1;exitDx=0;exitDy=0;" edge="1" parent="1" source="rGQe2OTgoNgVS8Tw92WL-26" target="rGQe2OTgoNgVS8Tw92WL-25">
          <mxGeometry width="50" height="50" relative="1" as="geometry">
            <mxPoint x="185" y="178" as="sourcePoint" />
            <mxPoint x="235" y="128" as="targetPoint" />
          </mxGeometry>
        </mxCell>
        <mxCell id="rGQe2OTgoNgVS8Tw92WL-28" value="" style="endArrow=classic;html=1;rounded=0;exitX=0.5;exitY=1;exitDx=0;exitDy=0;entryX=0.75;entryY=0;entryDx=0;entryDy=0;" edge="1" parent="1" source="rGQe2OTgoNgVS8Tw92WL-15" target="rGQe2OTgoNgVS8Tw92WL-26">
          <mxGeometry width="50" height="50" relative="1" as="geometry">
            <mxPoint x="195" y="188" as="sourcePoint" />
            <mxPoint x="245" y="138" as="targetPoint" />
          </mxGeometry>
        </mxCell>
        <mxCell id="rGQe2OTgoNgVS8Tw92WL-29" value="" style="endArrow=classic;html=1;rounded=0;exitX=0.5;exitY=1;exitDx=0;exitDy=0;" edge="1" parent="1" source="rGQe2OTgoNgVS8Tw92WL-16" target="rGQe2OTgoNgVS8Tw92WL-26">
          <mxGeometry width="50" height="50" relative="1" as="geometry">
            <mxPoint x="205" y="198" as="sourcePoint" />
            <mxPoint x="255" y="148" as="targetPoint" />
          </mxGeometry>
        </mxCell>
        <mxCell id="rGQe2OTgoNgVS8Tw92WL-30" value="" style="endArrow=classic;html=1;rounded=0;exitX=0.5;exitY=1;exitDx=0;exitDy=0;entryX=0.5;entryY=0;entryDx=0;entryDy=0;" edge="1" parent="1" source="rGQe2OTgoNgVS8Tw92WL-12" target="rGQe2OTgoNgVS8Tw92WL-26">
          <mxGeometry width="50" height="50" relative="1" as="geometry">
            <mxPoint x="215" y="208" as="sourcePoint" />
            <mxPoint x="265" y="158" as="targetPoint" />
          </mxGeometry>
        </mxCell>
        <mxCell id="rGQe2OTgoNgVS8Tw92WL-31" value="" style="endArrow=classic;html=1;rounded=0;exitX=0.5;exitY=1;exitDx=0;exitDy=0;" edge="1" parent="1" source="rGQe2OTgoNgVS8Tw92WL-36" target="rGQe2OTgoNgVS8Tw92WL-35">
          <mxGeometry width="50" height="50" relative="1" as="geometry">
            <mxPoint x="1788" y="-218" as="sourcePoint" />
            <mxPoint x="1838" y="-268" as="targetPoint" />
          </mxGeometry>
        </mxCell>
        <mxCell id="rGQe2OTgoNgVS8Tw92WL-32" value="" style="endArrow=classic;html=1;rounded=0;exitX=0.5;exitY=1;exitDx=0;exitDy=0;entryX=0.5;entryY=0;entryDx=0;entryDy=0;" edge="1" parent="1" source="rGQe2OTgoNgVS8Tw92WL-20" target="rGQe2OTgoNgVS8Tw92WL-19">
          <mxGeometry width="50" height="50" relative="1" as="geometry">
            <mxPoint x="1025" y="44" as="sourcePoint" />
            <mxPoint x="1075" y="-6" as="targetPoint" />
          </mxGeometry>
        </mxCell>
        <mxCell id="rGQe2OTgoNgVS8Tw92WL-33" value="" style="endArrow=classic;html=1;rounded=0;exitX=0.5;exitY=1;exitDx=0;exitDy=0;entryX=0.5;entryY=0;entryDx=0;entryDy=0;" edge="1" parent="1" source="rGQe2OTgoNgVS8Tw92WL-21" target="rGQe2OTgoNgVS8Tw92WL-20">
          <mxGeometry width="50" height="50" relative="1" as="geometry">
            <mxPoint x="1035" y="54" as="sourcePoint" />
            <mxPoint x="1085" y="4" as="targetPoint" />
          </mxGeometry>
        </mxCell>
        <mxCell id="rGQe2OTgoNgVS8Tw92WL-34" value="np_user" style="rounded=0;whiteSpace=wrap;html=1;fillColor=#f8cecc;strokeColor=#b85450;" vertex="1" parent="1">
          <mxGeometry x="586" y="534" width="120" height="60" as="geometry" />
        </mxCell>
        <mxCell id="rGQe2OTgoNgVS8Tw92WL-35" value="&lt;div style=&quot;background-color: rgb(255, 255, 254); font-family: Consolas, &amp;quot;Courier New&amp;quot;, monospace; font-size: 14px; line-height: 19px; white-space: pre;&quot;&gt;assetNum&lt;/div&gt;" style="rounded=0;whiteSpace=wrap;html=1;" vertex="1" parent="1">
          <mxGeometry x="1018.5" y="534" width="120" height="60" as="geometry" />
        </mxCell>
        <mxCell id="rGQe2OTgoNgVS8Tw92WL-36" value="&lt;div style=&quot;font-size: medium; text-align: start;&quot; data-hash=&quot;248a1b14a459ba64f15ba4744eee4ec1&quot; data-version=&quot;3.0.0&quot;&gt;&lt;/div&gt;&lt;div style=&quot;font-size: medium; text-align: start;&quot; class=&quot;section&quot;&gt;&lt;p style=&quot;margin: 0pt; font-family: 等线; font-size: 12pt; line-height: 1.5;&quot; class=&quot;paragraph text-align-type-left&quot;&gt;&lt;span style=&quot;font-size: 10.5pt; font-family: Monaco; letter-spacing: 0pt; vertical-align: baseline;&quot; data-font-family=&quot;Monaco&quot;&gt;gams_inventory_i&lt;/span&gt;&lt;/p&gt;&lt;/div&gt;" style="rounded=0;whiteSpace=wrap;html=1;fillColor=#f8cecc;strokeColor=#b85450;" vertex="1" parent="1">
          <mxGeometry x="1013" y="17" width="131" height="60" as="geometry" />
        </mxCell>
        <mxCell id="rGQe2OTgoNgVS8Tw92WL-37" value="&lt;div style=&quot;font-family: Consolas, &amp;quot;Courier New&amp;quot;, monospace; font-size: 14px; line-height: 19px; white-space: pre;&quot;&gt;&lt;span&gt;asset_check_project&lt;/span&gt;&lt;/div&gt;" style="rounded=0;whiteSpace=wrap;html=1;fillColor=#f8cecc;strokeColor=#b85450;" vertex="1" parent="1">
          <mxGeometry x="231" y="534" width="163" height="60" as="geometry" />
        </mxCell>
        <mxCell id="rGQe2OTgoNgVS8Tw92WL-38" value="" style="endArrow=classic;html=1;rounded=0;exitX=0.5;exitY=1;exitDx=0;exitDy=0;entryX=0.5;entryY=0;entryDx=0;entryDy=0;" edge="1" parent="1" source="rGQe2OTgoNgVS8Tw92WL-22" target="rGQe2OTgoNgVS8Tw92WL-19">
          <mxGeometry width="50" height="50" relative="1" as="geometry">
            <mxPoint x="1025" y="44" as="sourcePoint" />
            <mxPoint x="1075" y="-6" as="targetPoint" />
          </mxGeometry>
        </mxCell>
        <mxCell id="rGQe2OTgoNgVS8Tw92WL-39" value="" style="endArrow=classic;html=1;rounded=0;exitX=0.5;exitY=1;exitDx=0;exitDy=0;entryX=0.5;entryY=0;entryDx=0;entryDy=0;" edge="1" parent="1" source="rGQe2OTgoNgVS8Tw92WL-23" target="rGQe2OTgoNgVS8Tw92WL-22">
          <mxGeometry width="50" height="50" relative="1" as="geometry">
            <mxPoint x="1035" y="54" as="sourcePoint" />
            <mxPoint x="1085" y="4" as="targetPoint" />
          </mxGeometry>
        </mxCell>
        <mxCell id="rGQe2OTgoNgVS8Tw92WL-40" value="" style="endArrow=classic;html=1;rounded=0;exitX=0.5;exitY=1;exitDx=0;exitDy=0;entryX=0.5;entryY=0;entryDx=0;entryDy=0;" edge="1" parent="1" source="rGQe2OTgoNgVS8Tw92WL-24" target="rGQe2OTgoNgVS8Tw92WL-21">
          <mxGeometry width="50" height="50" relative="1" as="geometry">
            <mxPoint x="1045" y="64" as="sourcePoint" />
            <mxPoint x="1095" y="14" as="targetPoint" />
          </mxGeometry>
        </mxCell>
        <mxCell id="rGQe2OTgoNgVS8Tw92WL-41" value="" style="endArrow=classic;html=1;rounded=0;exitX=0.5;exitY=1;exitDx=0;exitDy=0;entryX=0.5;entryY=0;entryDx=0;entryDy=0;" edge="1" parent="1" source="rGQe2OTgoNgVS8Tw92WL-24" target="rGQe2OTgoNgVS8Tw92WL-23">
          <mxGeometry width="50" height="50" relative="1" as="geometry">
            <mxPoint x="1055" y="74" as="sourcePoint" />
            <mxPoint x="1105" y="24" as="targetPoint" />
          </mxGeometry>
        </mxCell>
        <mxCell id="rGQe2OTgoNgVS8Tw92WL-43" value="" style="endArrow=classic;html=1;rounded=0;exitX=0.5;exitY=1;exitDx=0;exitDy=0;entryX=0.5;entryY=0;entryDx=0;entryDy=0;" edge="1" parent="1" source="rGQe2OTgoNgVS8Tw92WL-35" target="rGQe2OTgoNgVS8Tw92WL-18">
          <mxGeometry width="50" height="50" relative="1" as="geometry">
            <mxPoint x="150" y="678" as="sourcePoint" />
            <mxPoint x="200" y="628" as="targetPoint" />
          </mxGeometry>
        </mxCell>
        <mxCell id="rGQe2OTgoNgVS8Tw92WL-44" value="" style="endArrow=classic;html=1;rounded=0;exitX=0.5;exitY=1;exitDx=0;exitDy=0;entryX=0.5;entryY=0;entryDx=0;entryDy=0;" edge="1" parent="1" source="rGQe2OTgoNgVS8Tw92WL-14" target="rGQe2OTgoNgVS8Tw92WL-18">
          <mxGeometry width="50" height="50" relative="1" as="geometry">
            <mxPoint x="160" y="688" as="sourcePoint" />
            <mxPoint x="210" y="638" as="targetPoint" />
          </mxGeometry>
        </mxCell>
        <mxCell id="rGQe2OTgoNgVS8Tw92WL-45" value="" style="endArrow=classic;html=1;rounded=0;exitX=0.5;exitY=1;exitDx=0;exitDy=0;entryX=0.5;entryY=0;entryDx=0;entryDy=0;" edge="1" parent="1" source="rGQe2OTgoNgVS8Tw92WL-19" target="rGQe2OTgoNgVS8Tw92WL-18">
          <mxGeometry width="50" height="50" relative="1" as="geometry">
            <mxPoint x="170" y="698" as="sourcePoint" />
            <mxPoint x="220" y="648" as="targetPoint" />
          </mxGeometry>
        </mxCell>
        <mxCell id="rGQe2OTgoNgVS8Tw92WL-46" value="" style="endArrow=classic;html=1;rounded=0;exitX=0.5;exitY=1;exitDx=0;exitDy=0;entryX=0.5;entryY=0;entryDx=0;entryDy=0;" edge="1" parent="1" source="rGQe2OTgoNgVS8Tw92WL-34" target="rGQe2OTgoNgVS8Tw92WL-18">
          <mxGeometry width="50" height="50" relative="1" as="geometry">
            <mxPoint x="180" y="708" as="sourcePoint" />
            <mxPoint x="230" y="658" as="targetPoint" />
          </mxGeometry>
        </mxCell>
        <mxCell id="rGQe2OTgoNgVS8Tw92WL-47" value="" style="endArrow=classic;html=1;rounded=0;exitX=0.5;exitY=1;exitDx=0;exitDy=0;entryX=0.5;entryY=0;entryDx=0;entryDy=0;" edge="1" parent="1" source="rGQe2OTgoNgVS8Tw92WL-25" target="rGQe2OTgoNgVS8Tw92WL-18">
          <mxGeometry width="50" height="50" relative="1" as="geometry">
            <mxPoint x="190" y="718" as="sourcePoint" />
            <mxPoint x="240" y="668" as="targetPoint" />
          </mxGeometry>
        </mxCell>
        <mxCell id="rGQe2OTgoNgVS8Tw92WL-48" value="" style="endArrow=classic;html=1;rounded=0;exitX=0.5;exitY=1;exitDx=0;exitDy=0;entryX=0.5;entryY=0;entryDx=0;entryDy=0;" edge="1" parent="1" source="rGQe2OTgoNgVS8Tw92WL-37" target="rGQe2OTgoNgVS8Tw92WL-18">
          <mxGeometry width="50" height="50" relative="1" as="geometry">
            <mxPoint x="200" y="728" as="sourcePoint" />
            <mxPoint x="250" y="678" as="targetPoint" />
          </mxGeometry>
        </mxCell>
      </root>
    </mxGraphModel>
  </diagram>
</mxfile>
